<svg width="159" height="112" viewBox="0 0 159 112" fill="none" xmlns="http://www.w3.org/2000/svg">
<path fill-rule="evenodd" clip-rule="evenodd" d="M88.13 56.3848C87.2125 57.3007 86.3016 58.3694 85.8029 59.5442C83.6553 64.6284 81.5875 69.7591 79.6727 74.9363C79.3203 75.8855 79.4067 77.5581 80.0118 78.1356C80.6301 78.7263 82.2724 78.7329 83.2498 78.3878L83.3169 78.3639C87.3573 76.9248 91.4226 75.4768 95.2643 73.6022C98.1698 72.1818 101.135 70.476 103.416 68.2325C116.705 55.1553 129.89 41.9785 143.076 28.8005C146.575 25.304 150.074 21.8074 153.575 18.3126C153.735 18.1528 153.897 17.9937 154.059 17.8342C154.848 17.0594 155.643 16.2772 156.261 15.3855C158.462 12.2128 158.768 8.81448 156.966 5.36302C155.164 1.90494 152.139 0.338508 146.846 0C146.446 0.254173 145.941 0.52879 145.378 0.835338C143.91 1.6335 142.045 2.64813 140.59 4.08201C124.25 20.2148 108.019 36.4682 91.7851 52.7247L88.13 56.3848ZM85.9891 72.1353C86.9301 69.6961 87.6963 67.7154 88.4434 65.7839L89.0675 64.1704L90.412 65.7703L93.3627 69.2812L91.3543 70.0589C89.8678 70.6345 88.1026 71.318 85.9891 72.1353ZM149.346 5.30329C150.616 5.34975 152.332 7.10203 152.917 8.48261C154.007 11.0579 152.471 13.0491 150.297 14.6023C148.974 13.2549 147.706 11.9671 146.328 10.567L146.312 10.5503C145.305 9.52759 144.239 8.44471 143.05 7.23477C143.761 6.99527 144.446 6.71221 145.11 6.43758C146.599 5.82171 147.985 5.2482 149.346 5.30329ZM146.048 18.0206C130.211 33.8309 114.327 49.6876 98.4358 65.5444C97.6731 64.7269 96.8249 63.8189 95.9445 62.8763C94.8448 61.699 93.6948 60.4678 92.5981 59.292C108.13 43.787 124.014 27.9302 139.971 12.0071C142.086 14.0912 144.2 16.182 146.048 18.0206ZM158.13 56.5969C158.13 55.4686 157.864 53.8822 157.113 53.2915C152.481 49.6583 147.764 46.1312 142.993 42.5635L142.993 42.5632L142.99 42.5607L142.984 42.5561L142.962 42.5397C141.32 41.3117 139.671 40.0789 138.017 38.8352C137.412 39.6714 136.883 40.3987 136.368 41.107C135.983 41.6356 135.606 42.1536 135.211 42.6982C140.75 46.8665 146.023 50.8357 151.681 55.1035L143.002 61.5454L142.984 61.5582C139.306 64.2881 135.603 67.0371 131.694 69.9381V48.1143H126.993C126.993 50.26 126.987 52.3868 126.981 54.4999V54.5009C126.965 59.9112 126.949 65.2317 127.04 70.5488C127.073 72.6528 126.442 73.9272 124.72 75.195C114.918 82.3824 105.164 89.6403 95.4089 96.8993L95.4063 96.9012L95.4037 96.9032L95.4012 96.9051L95.3986 96.907L95.396 96.9089L95.3934 96.9109L95.3908 96.9128L95.3882 96.9147L95.3856 96.9166L95.383 96.9185L95.3805 96.9205C92.0827 99.3744 88.7847 101.829 85.4846 104.28C83.8515 105.495 82.2105 106.694 80.5492 107.908L80.5475 107.909C80.0586 108.267 79.5678 108.625 79.0751 108.986C76.1175 106.788 73.1661 104.597 70.2204 102.41L70.2184 102.408C57.5696 93.0169 45.0263 83.7037 32.5529 74.2989C31.6753 73.6352 31.2896 71.8497 31.283 70.582C31.2191 54.4719 31.2234 38.3618 31.2277 22.2517C31.2287 18.2239 31.2298 14.1961 31.2298 10.1683C31.2298 5.11057 31.4359 4.89154 36.4292 4.89154C44.0712 4.88975 51.7127 4.89133 59.3539 4.89291C80.0941 4.8972 100.833 4.90149 121.575 4.83844C125.032 4.82516 127.592 5.26323 127.16 9.61073H131.495C132.073 3.24546 129.414 0.112603 123.529 0.105966C93.9286 0.072779 64.3279 0.0794164 34.7271 0.105966C29.2617 0.112603 26.5224 2.86049 26.4958 8.25006C26.4821 10.9775 26.488 13.7057 26.4938 16.4339V16.4347C26.505 21.6733 26.5162 26.9119 26.3894 32.1447C26.3562 33.5187 25.4586 35.324 24.3681 36.1537C17.3137 41.4968 10.1263 46.6807 2.8923 51.7915C0.897634 53.1986 -0.00661248 54.7451 3.63902e-05 57.2673C0.0505678 75.6963 0.0504274 94.1253 0.0502871 112.556C0.0502058 123.226 0.0501245 133.897 0.0598762 144.569C0.0665251 152.892 4.97339 157.817 13.2579 157.884C18.145 157.921 23.0355 157.913 27.9246 157.904H27.9253H27.926H27.9267H27.9275H27.9282H27.9289H27.9296H27.9303H27.9311H27.9318H27.9325C30.0249 157.901 32.117 157.897 34.2085 157.897C43.2464 157.897 52.2843 157.898 61.3221 157.899L61.8148 157.899H61.8151H61.8154H61.8158H61.8161H61.8164H61.8167H61.817H61.8174H61.8177H61.818H61.8183C89.4228 157.901 117.026 157.904 144.626 157.884C152.904 157.877 158.117 153.092 158.137 145.226C158.21 115.683 158.183 86.14 158.13 56.5969ZM26.2631 40.8198V69.7191C23.7817 67.8792 21.3541 66.0801 18.9338 64.2864L18.9273 64.2816L18.8887 64.253C14.8457 61.2567 10.8224 58.275 6.60237 55.1433C11.9341 51.2509 17.0958 47.4934 22.4548 43.5923L22.4559 43.5915L26.2631 40.8198ZM153.33 143.972C153.323 150.51 150.81 153.065 144.3 153.065C100.843 153.085 57.3798 153.085 13.9228 153.065C7.64624 153.065 4.91355 150.549 4.9069 144.636C4.87426 122.273 4.88168 99.9147 4.8891 77.5537C4.89075 72.5839 4.8924 67.6138 4.89361 62.6436C4.89361 62.2419 4.93061 61.8402 4.98461 61.2538C5.01626 60.9101 5.05376 60.503 5.09307 59.9953C14.6297 67.0805 23.9826 74.0316 33.3157 80.9679L33.3254 80.9751C40.0678 85.986 46.7998 90.9892 53.5833 96.0298C39.9464 111.322 26.4825 126.429 12.7659 141.821C13.9161 142.883 14.9932 143.885 16.2698 145.074L22.0725 138.574C33.8869 125.341 45.6201 112.198 57.4662 98.9237C59.2807 100.272 61.0923 101.606 62.8973 102.935L62.8975 102.935L62.8983 102.936L62.8987 102.936C67.2842 106.164 71.6306 109.364 75.8836 112.683C78.224 114.508 79.966 114.542 82.3197 112.703C86.6171 109.349 91.0098 106.114 95.4492 102.844L95.4499 102.844L95.4506 102.843L95.4512 102.843L95.4519 102.842L95.4526 102.842L95.4533 102.841L95.454 102.841L95.4547 102.84L95.4554 102.84L95.4561 102.839L95.4567 102.839L95.4574 102.838C97.2176 101.542 98.9852 100.24 100.757 98.9237L108.197 107.257C119.454 119.867 130.647 132.404 141.933 145.054L142.328 144.709L142.87 144.234L143.719 143.492L143.748 143.467L143.764 143.453C144.329 142.959 144.901 142.458 145.531 141.908C131.854 126.562 118.337 111.395 104.647 96.0364C114.309 88.8545 123.874 81.7485 133.523 74.5809L133.566 74.5486C140.043 69.737 146.557 64.8976 153.163 59.9887C153.19 60.5704 153.219 61.0763 153.245 61.5337L153.246 61.5386L153.246 61.5415L153.246 61.5433C153.292 62.3444 153.33 62.9965 153.33 63.6459C153.336 90.4212 153.343 117.196 153.33 143.972ZM54.7411 35.9189H54.741H54.7409H54.7407H54.7406H54.7405H54.7404H54.7402H54.7401H54.74H54.7399C50.5842 35.8997 46.4272 35.8805 42.2736 35.9745C39.368 36.0409 38.3441 34.8926 38.4172 32.0518C38.5568 26.5295 38.5103 21.0005 38.4371 15.4782C38.4039 13.102 39.4345 12.0201 41.7882 12.0201H41.7888C53.8563 12.0334 65.9238 12.0467 77.9913 12.0069C80.5445 12.0002 81.5817 13.2016 81.5684 15.6574C81.5285 21.1798 81.5086 26.7087 81.5751 32.231C81.6016 34.8727 80.5378 36.021 77.8051 35.9679C73.5773 35.8881 69.3494 35.9046 65.1215 35.9211C63.3721 35.9279 61.6226 35.9347 59.8731 35.9347C58.1653 35.9347 56.4569 35.9268 54.7482 35.9189H54.7475H54.7468H54.7461H54.7454H54.7447H54.744H54.7433H54.7426H54.7418H54.7411ZM76.4222 17.038H43.4105V31.0098H76.4222V17.038ZM81.3959 52.8872H38.6836V57.2878H81.3959V52.8872ZM57.8389 83.9102H100.445V88.251H57.8389V83.9102ZM50.5764 47.6765H88.4151V43.3755H50.5764V47.6765ZM38.6895 62.5176H76.5947V66.7655H38.6895V62.5176ZM74.288 71.9961H43.4373V76.2374H74.288V71.9961ZM43.3567 131.766H100.424V136.093H43.3567V131.766ZM57.78 145.684H114.774V141.383H57.78V145.684ZM114.805 136.14H105.73V131.699H114.805V136.14ZM43.3508 145.738H52.5196V141.324H43.3508V145.738ZM140.896 19.8193L99.9655 60.6792C99.6167 60.3476 99.19 59.9432 98.7632 59.5386C98.3356 59.1334 97.908 58.7281 97.5586 58.396C110.813 45.1644 123.998 32.0079 137.577 18.4592L138.815 17.2241C139.05 17.5157 139.358 17.9012 139.689 18.3147C140.089 18.8142 140.521 19.3545 140.896 19.8193Z" fill="white"/>
</svg>
