<svg width="18" height="22" viewBox="0 0 18 22" fill="none" xmlns="http://www.w3.org/2000/svg">
<path d="M14.2477 3.92909C14.7901 3.92909 15.2717 3.92025 15.7533 3.93105C17.0116 3.95755 17.9869 4.95581 17.9906 6.27308C18.0019 10.7402 18.0028 15.2074 17.9897 19.6735C17.986 20.9623 17.0088 21.9832 15.7786 21.9891C12.5144 22.0048 9.25016 22.0038 5.98595 21.99C4.73142 21.9851 3.77764 20.9604 3.75235 19.6441C3.74298 19.1395 3.75047 18.635 3.75047 18.0686C3.25578 18.0686 2.79295 18.0726 2.33105 18.0677C0.963152 18.0539 0.00656204 17.0566 0.0037513 15.6186C-0.0028071 12.1988 0.0037513 8.77904 3.64078e-06 5.35924C-0.000933274 4.74379 0.178954 4.20491 0.544351 3.72885C1.25828 2.79733 1.9694 1.86484 2.68239 0.932345C3.16209 0.302175 3.78795 -0.000149157 4.55622 -0.000149157C7.00812 0.00279556 9.46003 -0.00407545 11.9129 0.00279556C13.2845 0.00672186 14.2345 1.00793 14.2477 2.44299C14.2523 2.9161 14.2477 3.38922 14.2477 3.92909ZM12.7467 9.08431C12.7467 6.91013 12.7486 4.73496 12.7458 2.56078C12.7449 1.85306 12.4844 1.57626 11.8173 1.57528C9.42911 1.57233 7.04185 1.5792 4.65366 1.5684C4.27514 1.56644 4.00157 1.70386 3.77108 2.01208C3.12649 2.8739 2.45004 3.71118 1.82699 4.58969C1.6471 4.84391 1.51874 5.20513 1.51687 5.51924C1.49532 8.83794 1.50281 12.1576 1.50375 15.4763C1.50375 16.237 1.75578 16.4932 2.49688 16.4942C5.58682 16.4952 8.67771 16.4952 11.7676 16.4942C12.4984 16.4942 12.7458 16.2331 12.7458 15.4616C12.7477 13.3355 12.7467 11.2104 12.7467 9.08431ZM5.25235 18.0677C5.25235 18.5339 5.25141 18.954 5.25235 19.3751C5.25422 20.1712 5.49501 20.4215 6.26609 20.4215C9.32605 20.4225 12.386 20.4225 15.446 20.4215C16.2733 20.4215 16.4953 20.1869 16.4953 19.3143C16.4953 15.0778 16.4953 10.8423 16.4953 6.60584C16.4953 6.47529 16.5066 6.34179 16.4878 6.21419C16.4307 5.81076 16.2058 5.54083 15.8179 5.51433C15.3101 5.47997 14.7976 5.50549 14.2477 5.50549C14.2477 5.72929 14.2477 5.90499 14.2477 6.08168C14.2477 9.23842 14.2505 12.3952 14.2467 15.5519C14.2449 17.0841 13.307 18.0637 11.8426 18.0667C9.82824 18.0706 7.81481 18.0677 5.80044 18.0677C5.63367 18.0677 5.46596 18.0677 5.25235 18.0677Z" fill="white"/>
</svg>
