<?xml version="1.0" encoding="utf-8"?>
<!-- Generator: Adobe Illustrator 26.0.1, SVG Export Plug-In . SVG Version: 6.00 Build 0)  -->
<svg version="1.1" id="Layer_1" xmlns="http://www.w3.org/2000/svg" xmlns:xlink="http://www.w3.org/1999/xlink" x="0px" y="0px"
	 viewBox="0 0 19 20" style="enable-background:new 0 0 19 20;" xml:space="preserve">
<style type="text/css">
	.st0{fill:#828282;}
</style>
<g>
	<path class="st0" d="M9.2,20c-1.3,0-2.7,0-3.9,0c-1.7,0-2.8-1.1-3-2.8c-0.3-2.8-0.9-9.5-0.9-9.6c0-0.4,0.3-0.8,0.7-0.8
		c0.4,0,0.8,0.3,0.8,0.7c0,0.1,0.5,6.7,0.9,9.6c0.1,1,0.6,1.5,1.6,1.5c2.5,0.1,5,0.1,7.8,0c1,0,1.5-0.5,1.6-1.5
		c0.3-2.8,0.9-9.5,0.9-9.5c0-0.4,0.4-0.7,0.8-0.7c0.4,0,0.7,0.4,0.7,0.8c0,0.1-0.5,6.8-0.9,9.6c-0.2,1.7-1.3,2.8-3.1,2.8
		C11.8,20,10.5,20,9.2,20z"/>
</g>
<g>
	<path class="st0" d="M17.7,5h-17C0.3,5,0,4.7,0,4.2s0.3-0.8,0.8-0.8h17c0.4,0,0.8,0.3,0.8,0.8S18.1,5,17.7,5z"/>
</g>
<g>
	<path class="st0" d="M14.4,5c-1.1,0-2.1-0.8-2.4-1.9l-0.2-1.2c-0.1-0.2-0.3-0.3-0.5-0.3H7.1c-0.2,0-0.5,0.2-0.5,0.4L6.4,3.1
		C6.1,4.2,5.2,5,4,5C3.6,5,3.3,4.7,3.3,4.2S3.6,3.5,4,3.5c0.4,0,0.8-0.3,0.9-0.7l0.2-1.2C5.4,0.6,6.2,0,7.1,0h4.2
		c0.9,0,1.7,0.6,2,1.5l0.3,1.3c0.1,0.4,0.5,0.7,0.9,0.7c0.4,0,0.8,0.3,0.8,0.8S14.9,5,14.4,5z"/>
</g>
</svg>
