<?xml version="1.0" encoding="utf-8"?>
<!-- Generator: Adobe Illustrator 26.0.1, SVG Export Plug-In . SVG Version: 6.00 Build 0)  -->
<svg version="1.1" id="Layer_1" xmlns="http://www.w3.org/2000/svg" xmlns:xlink="http://www.w3.org/1999/xlink" x="0px" y="0px"
	 viewBox="0 0 20 20" style="enable-background:new 0 0 20 20;" xml:space="preserve">
<style type="text/css">
	.st0{fill:#828282;}
</style>
<g>
	<path class="st0" d="M19,19.2h-7.3c-0.4,0-0.8-0.3-0.8-0.8s0.3-0.8,0.8-0.8H19c0.4,0,0.8,0.3,0.8,0.8S19.4,19.2,19,19.2z"/>
</g>
<g>
	<path class="st0" d="M1.9,19.2c-0.3,0-0.6-0.2-0.7-0.6l-0.8-3.5c-0.2-0.7,0-1.5,0.5-2l9.4-11.8c0,0,0,0,0,0c1-1.2,2.9-1.4,4.2-0.4
		c0.1,0.1,1.7,1.3,1.7,1.3c0.6,0.4,1.1,1,1.3,1.8c0.2,0.8,0,1.5-0.4,2.2c0,0-0.1,0.1-9.6,12c-0.5,0.6-1.1,0.9-1.9,0.9L1.9,19.2
		C1.9,19.2,1.9,19.2,1.9,19.2z M11.4,2.3L1.9,14c-0.2,0.2-0.2,0.5-0.2,0.8l0.7,2.9l3,0c0.3,0,0.6-0.1,0.7-0.4
		c3.2-4,9.3-11.7,9.5-11.9c0.2-0.3,0.2-0.6,0.1-1c-0.1-0.4-0.3-0.7-0.7-0.9c-0.1,0-1.8-1.4-1.8-1.4C12.8,1.6,11.9,1.7,11.4,2.3z"/>
</g>
<g>
	<path class="st0" d="M14.5,8.9c-0.2,0-0.3-0.1-0.5-0.2L8.6,4.6C8.2,4.3,8.2,3.9,8.4,3.5c0.3-0.3,0.7-0.4,1.1-0.1l5.5,4.2
		c0.3,0.3,0.4,0.7,0.1,1.1C14.9,8.8,14.7,8.9,14.5,8.9z"/>
</g>
</svg>
