<svg width="18" height="18" viewBox="0 0 18 18" fill="none" xmlns="http://www.w3.org/2000/svg">
<path fill-rule="evenodd" clip-rule="evenodd" d="M0.666748 9.00483C0.666748 4.40522 4.4071 0.666672 9.00008 0.666672C13.5931 0.666672 17.3334 4.40522 17.3334 9.00483C17.3334 13.5948 13.5931 17.3333 9.00008 17.3333C4.4071 17.3333 0.666748 13.5948 0.666748 9.00483ZM12.0567 9.84821C12.1452 9.75977 12.2578 9.6231 12.2819 9.59094C12.4106 9.4221 12.475 9.21306 12.475 9.00483C12.475 8.77087 12.4026 8.55379 12.2658 8.37691C12.2546 8.36571 12.2327 8.34183 12.2041 8.3107C12.1506 8.25246 12.0738 8.16887 12.0004 8.09552C11.3408 7.38801 9.61945 6.23027 8.71855 5.87651C8.58181 5.82104 8.23592 5.69964 8.05092 5.6916C7.87396 5.6916 7.70504 5.73179 7.54416 5.81219C7.34307 5.92475 7.18219 6.10163 7.09371 6.31067C7.03741 6.45538 6.94892 6.88954 6.94892 6.89758C6.86044 7.37193 6.81218 8.14376 6.81218 8.99599C6.81218 9.80882 6.86044 10.5477 6.93284 11.0301C6.93483 11.0321 6.94175 11.0666 6.9525 11.1202C6.98517 11.2831 7.05325 11.6226 7.12589 11.7617C7.30285 12.0994 7.64873 12.3084 8.01874 12.3084H8.05092C8.29223 12.3004 8.79899 12.0913 8.79899 12.0833C9.65163 11.7295 11.3328 10.6281 12.0084 9.89645L12.0567 9.84821Z" fill="white"/>
</svg>
