<svg width="18" height="12" viewBox="0 0 18 12" fill="none" xmlns="http://www.w3.org/2000/svg">
<g clip-path="url(#clip0_2_1920)">
<path d="M17.9418 2.4551C17.7878 1.99849 17.3849 1.72244 16.8963 1.73917C16.4365 1.7545 16.0442 2.05914 15.9233 2.50808C15.8101 2.92983 15.9556 3.28326 16.253 3.59138C15.7707 4.07726 15.313 4.5757 14.8159 5.03091C14.0046 5.77263 12.7918 5.70083 12.1035 4.84408C11.302 3.84582 10.5511 2.80783 9.78264 1.79284C10.1658 1.14105 10.1377 0.642618 9.70671 0.264786C9.32284 -0.0726139 8.75546 -0.0900415 8.34979 0.222262C7.87732 0.586152 7.83514 1.08877 8.22675 1.82421C7.46111 2.82665 6.71023 3.85001 5.91435 4.83781C5.23378 5.682 4.02239 5.77402 3.22792 5.06158C2.71679 4.60288 2.24503 4.10027 1.7571 3.61857C1.78592 3.56838 1.79928 3.53701 1.81897 3.51121C2.2605 2.93819 2.20073 2.29267 1.67132 1.9239C1.19886 1.59556 0.537973 1.7071 0.204718 2.17207C-0.173534 2.69978 -0.0153432 3.31881 0.587891 3.72104C0.670853 3.77681 0.742567 3.88695 0.767877 3.98455C1.12504 5.37807 1.47235 6.77437 1.82389 8.16928C1.94341 8.64401 2.0545 8.72976 2.55789 8.72906C6.85717 8.72348 11.1557 8.71651 15.455 8.70884C15.9633 8.70815 16.1018 8.60428 16.2221 8.12885C16.5609 6.7904 16.8984 5.45196 17.2282 4.11142C17.2795 3.90159 17.3519 3.74684 17.5537 3.61996C17.9544 3.369 18.0901 2.89427 17.9418 2.4551Z" fill="#FBA26E"/>
<path d="M15.2342 9.80339C11.098 9.80339 6.96186 9.80339 2.8257 9.80339C2.73219 9.80339 2.63798 9.79991 2.54447 9.80618C2.18309 9.82988 2.01295 9.99231 1.99678 10.3548C1.98272 10.6678 1.99115 10.9822 1.99256 11.2959C1.99608 11.8494 2.14724 12 2.70125 12C4.81046 12.0007 6.91897 12 9.02818 12.0007C11.1374 12.0007 13.2459 12.0014 15.3551 12.0007C15.914 12.0007 16.0526 11.8592 16.0568 11.2966C16.0582 11.0756 16.0575 10.8553 16.0568 10.6343C16.0575 9.89332 15.9682 9.80339 15.2342 9.80339Z" fill="#FBA26E"/>
</g>
<defs>
<clipPath id="clip0_2_1920">
<rect width="18" height="12" fill="white"/>
</clipPath>
</defs>
</svg>
